<svg id="svg" version="1.1" xmlns="http://www.w3.org/2000/svg" xmlns:xlink="http://www.w3.org/1999/xlink" width="400" height="360.83333333333337" viewBox="0, 0, 400,360.83333333333337"><g id="svgg"><path id="path0" d="M94.314 109.903 C 93.270 110.286,92.292 110.996,92.292 111.371 C 92.292 111.701,91.970 112.328,91.406 113.100 C 91.206 113.374,91.042 113.748,91.042 113.933 C 91.042 114.845,89.521 116.485,87.932 117.286 C 86.467 118.024,83.790 120.158,81.250 122.612 C 80.734 123.110,79.183 124.446,77.803 125.581 C 75.312 127.629,72.464 130.535,72.379 131.115 C 72.355 131.281,72.091 131.776,71.792 132.215 C 71.106 133.226,71.096 133.551,71.771 132.917 L 72.292 132.427 72.292 132.943 C 72.292 133.962,69.345 137.307,65.990 140.098 C 65.445 140.551,65.000 141.022,65.000 141.146 C 65.000 141.269,64.532 141.831,63.960 142.395 C 62.914 143.424,62.817 144.036,63.780 143.531 L 64.271 143.273 63.854 143.750 C 63.555 144.092,63.512 144.253,63.699 144.319 C 63.843 144.369,63.908 144.496,63.843 144.601 C 63.632 144.943,63.987 144.805,65.599 143.917 L 67.188 143.043 65.052 145.315 C 63.878 146.564,62.917 147.660,62.917 147.751 C 62.917 148.038,63.637 147.931,64.157 147.567 C 64.630 147.235,64.649 147.236,64.513 147.592 C 64.396 147.896,64.448 147.943,64.789 147.838 C 65.019 147.767,65.397 147.650,65.628 147.579 C 65.955 147.478,66.019 147.524,65.918 147.787 C 65.734 148.268,66.284 148.218,66.951 147.693 C 67.310 147.411,67.500 147.353,67.500 147.528 C 67.500 147.674,68.836 146.476,70.469 144.865 C 73.201 142.169,77.036 139.189,77.358 139.511 C 77.421 139.574,77.783 139.397,78.163 139.118 C 79.864 137.870,81.257 137.983,81.567 139.395 C 81.655 139.795,82.368 140.620,83.699 141.861 L 85.700 143.727 85.211 144.123 C 84.885 144.387,84.722 144.737,84.722 145.176 L 84.722 145.833 79.340 145.833 L 73.958 145.833 73.958 180.417 L 73.958 215.000 199.792 215.000 L 325.625 215.000 325.625 180.417 L 325.625 145.833 211.267 145.833 C 112.724 145.833,96.827 145.792,96.319 145.537 C 95.995 145.373,95.354 145.142,94.896 145.023 C 94.438 144.904,93.850 144.749,93.591 144.680 C 93.332 144.610,92.910 144.245,92.654 143.868 C 92.397 143.490,91.616 142.704,90.918 142.121 C 88.108 139.773,87.510 138.366,89.312 138.340 C 89.597 138.336,89.986 138.037,90.341 137.552 C 91.106 136.503,92.958 134.583,93.204 134.583 C 93.753 134.583,96.396 131.251,97.377 129.323 C 97.595 128.893,97.858 128.542,97.961 128.542 C 98.064 128.542,98.343 128.096,98.582 127.552 C 98.820 127.008,99.184 126.322,99.391 126.028 C 100.658 124.221,100.855 121.986,99.996 119.161 C 99.069 116.109,99.958 114.833,104.048 113.348 C 106.587 112.427,106.629 112.400,106.325 111.917 C 105.853 111.167,104.904 110.852,102.391 110.612 C 101.019 110.480,99.383 110.195,98.757 109.978 C 97.426 109.516,95.458 109.483,94.314 109.903 M88.680 141.552 C 91.342 144.120,91.468 144.763,89.069 143.545 C 87.995 143.000,87.611 142.896,87.255 143.055 C 86.600 143.348,84.786 141.371,84.946 140.539 C 85.035 140.070,85.797 139.413,86.284 139.383 C 86.360 139.379,87.438 140.355,88.680 141.552 M88.073 144.080 C 87.874 144.278,87.476 143.957,87.624 143.717 C 87.712 143.575,87.829 143.579,87.978 143.728 C 88.101 143.851,88.144 144.009,88.073 144.080 M86.679 145.536 C 86.919 145.825,86.857 145.855,86.148 145.796 C 85.706 145.759,85.306 145.612,85.259 145.469 C 85.132 145.082,86.350 145.140,86.679 145.536 M91.667 145.625 C 91.921 145.789,91.894 145.828,91.523 145.830 C 91.272 145.832,91.008 145.740,90.938 145.625 C 90.774 145.360,91.256 145.360,91.667 145.625 M88.800 148.281 L 88.878 148.854 89.121 148.281 L 89.365 147.708 206.557 147.708 L 323.750 147.708 323.750 180.417 L 323.750 213.125 199.896 213.125 L 76.042 213.125 76.042 180.417 L 76.042 147.708 82.382 147.708 L 88.722 147.708 88.800 148.281 M80.833 180.417 L 80.833 208.542 140.313 208.542 L 199.792 208.542 199.792 180.417 L 199.792 152.292 140.313 152.292 L 80.833 152.292 80.833 180.417 M102.607 170.657 C 107.617 172.301,108.032 179.948,103.213 181.788 C 102.068 182.225,101.927 181.798,104.441 185.490 C 105.623 187.226,106.660 188.763,106.745 188.906 C 106.863 189.105,106.550 189.167,105.436 189.167 L 103.972 189.167 101.725 185.843 L 99.479 182.518 97.344 182.509 L 95.208 182.500 95.208 185.833 L 95.208 189.167 93.958 189.167 L 92.708 189.167 92.708 179.826 C 92.708 174.689,92.771 170.424,92.847 170.347 C 93.240 169.954,101.240 170.208,102.607 170.657 M124.925 179.583 C 129.376 190.387,129.060 189.202,127.476 189.125 L 126.201 189.063 125.364 187.031 L 124.526 185.000 119.898 185.000 L 115.270 185.000 114.458 187.083 L 113.647 189.167 112.344 189.167 C 111.628 189.167,111.042 189.131,111.042 189.087 C 111.042 189.020,116.088 176.710,118.165 171.709 L 118.797 170.189 119.952 170.251 L 121.106 170.313 124.925 179.583 M136.445 175.573 C 137.606 178.523,138.952 181.945,139.435 183.176 C 140.210 185.152,140.625 185.861,140.625 185.209 C 140.625 185.095,141.944 181.673,143.556 177.605 L 146.487 170.208 147.723 170.208 C 149.260 170.208,149.569 168.996,145.267 179.844 L 141.570 189.167 140.408 189.167 L 139.245 189.167 136.976 183.490 C 135.728 180.367,134.032 176.102,133.207 174.010 L 131.708 170.208 133.020 170.208 L 134.332 170.208 136.445 175.573 M165.833 171.354 L 165.833 172.500 161.250 172.500 L 156.667 172.500 156.667 175.417 L 156.667 178.333 160.938 178.333 L 165.208 178.333 165.208 179.479 L 165.208 180.625 160.938 180.625 L 156.667 180.625 156.667 183.746 L 156.667 186.867 161.406 186.923 L 166.146 186.979 166.209 188.073 L 166.272 189.167 160.219 189.167 L 154.167 189.167 154.167 179.826 C 154.167 174.689,154.229 170.424,154.306 170.347 C 154.382 170.271,157.007 170.208,160.139 170.208 L 165.833 170.208 165.833 171.354 M180.012 177.418 L 185.104 184.627 185.208 177.470 L 185.313 170.313 186.510 170.250 L 187.708 170.188 187.708 179.688 L 187.708 189.187 186.518 189.125 L 185.327 189.063 180.216 181.815 L 175.104 174.567 175.049 181.867 L 174.995 189.167 173.747 189.167 L 172.500 189.167 172.500 179.826 C 172.500 169.440,172.392 170.208,173.849 170.208 L 174.920 170.208 180.012 177.418 M255.784 170.613 C 247.752 173.180,246.991 185.184,254.634 188.754 C 260.354 191.427,267.999 188.120,268.898 182.584 L 269.013 181.875 266.329 181.881 L 263.646 181.886 263.156 182.681 C 260.013 187.781,252.653 182.916,255.343 177.517 C 256.934 174.325,262.281 174.348,263.401 177.552 C 263.514 177.874,263.845 177.917,266.247 177.917 L 268.966 177.917 268.840 177.344 C 267.694 172.132,261.317 168.844,255.784 170.613 M278.086 170.515 C 272.008 172.189,269.223 178.937,272.191 184.799 C 275.559 191.449,287.215 191.243,290.395 184.478 C 294.236 176.307,286.972 168.067,278.086 170.515 M214.531 170.533 C 214.445 170.622,214.375 174.898,214.375 180.035 L 214.375 189.375 217.083 189.375 L 219.792 189.375 219.792 186.667 L 219.792 183.958 220.892 183.958 L 221.992 183.958 223.333 186.667 L 224.675 189.375 227.650 189.375 C 229.286 189.375,230.625 189.324,230.625 189.262 C 230.625 189.201,229.877 187.784,228.962 186.114 L 227.299 183.078 228.309 182.170 C 231.986 178.864,230.666 172.534,225.966 170.934 C 224.818 170.543,214.860 170.195,214.531 170.533 M233.958 179.896 L 233.958 189.375 240.521 189.375 L 247.083 189.375 247.083 187.188 L 247.083 185.000 243.125 185.000 L 239.167 185.000 239.167 183.438 L 239.167 181.875 242.604 181.875 L 246.042 181.875 246.042 179.792 L 246.042 177.708 242.604 177.708 L 239.167 177.708 239.167 176.250 L 239.167 174.792 242.917 174.792 L 246.667 174.792 246.667 172.604 L 246.667 170.417 240.313 170.417 L 233.958 170.417 233.958 179.896 M294.583 179.896 L 294.583 189.375 297.184 189.375 L 299.784 189.375 299.840 184.536 L 299.896 179.697 303.489 184.536 L 307.082 189.375 309.270 189.375 L 311.458 189.375 311.458 179.890 L 311.458 170.404 308.802 170.463 L 306.146 170.521 306.042 175.229 L 305.938 179.938 302.396 175.186 L 298.854 170.433 296.719 170.425 L 294.583 170.417 294.583 179.896 M95.208 176.222 L 95.208 180.000 98.094 180.000 C 102.163 180.000,103.451 179.408,103.955 177.307 C 104.734 174.059,103.117 172.701,98.281 172.543 L 95.208 172.443 95.208 176.222 M118.173 177.983 C 117.228 180.295,116.456 182.258,116.457 182.344 C 116.458 182.430,118.046 182.500,119.986 182.500 L 123.514 182.500 121.752 178.190 C 120.784 175.819,119.968 173.857,119.940 173.829 C 119.912 173.801,119.117 175.671,118.173 177.983 M223.818 175.218 C 224.517 175.550,225.000 176.398,225.000 177.292 C 225.000 178.942,224.099 179.574,221.510 179.740 L 219.792 179.850 219.792 177.295 L 219.792 174.739 221.510 174.839 C 222.456 174.894,223.494 175.065,223.818 175.218 M283.330 175.551 C 286.393 176.826,286.929 181.504,284.265 183.700 C 281.200 186.227,276.477 184.049,276.464 180.104 C 276.452 176.273,279.775 174.069,283.330 175.551 " stroke="none" fill="#040404" fill-rule="evenodd"></path><path id="path1" d="M0.000 180.417 L 0.000 360.833 200.000 360.833 L 400.000 360.833 400.000 180.417 L 400.000 0.000 200.000 0.000 L 0.000 0.000 0.000 180.417 M98.955 109.913 C 99.358 110.072,100.864 110.337,102.301 110.502 C 105.172 110.833,105.869 111.060,106.371 111.825 C 106.798 112.478,106.771 112.498,104.167 113.429 C 99.951 114.937,99.269 115.998,100.208 119.583 C 100.874 122.124,100.584 124.798,99.510 126.016 C 99.347 126.202,99.003 126.846,98.747 127.448 C 98.491 128.049,98.207 128.542,98.115 128.542 C 98.023 128.542,97.644 129.081,97.273 129.740 C 96.121 131.788,95.245 132.851,93.160 134.731 C 92.052 135.731,90.911 136.915,90.625 137.363 C 90.292 137.883,89.848 138.262,89.395 138.412 C 87.886 138.910,87.984 139.143,90.897 141.983 C 93.468 144.491,93.613 144.597,94.921 144.925 C 95.667 145.113,96.406 145.394,96.562 145.550 C 96.800 145.788,115.017 145.833,211.340 145.833 L 325.835 145.833 325.782 180.469 L 325.729 215.104 199.844 215.156 L 73.958 215.209 73.958 180.521 L 73.958 145.833 79.271 145.833 L 84.583 145.833 84.583 145.216 C 84.583 144.847,84.772 144.421,85.052 144.155 L 85.521 143.711 83.487 141.803 C 82.180 140.578,81.454 139.742,81.455 139.467 C 81.464 138.196,79.832 137.985,78.406 139.072 C 78.038 139.353,77.612 139.583,77.460 139.583 C 76.792 139.583,73.400 142.176,70.602 144.826 C 68.928 146.411,67.448 147.708,67.314 147.708 C 67.179 147.708,66.842 147.857,66.564 148.039 C 66.012 148.401,65.578 148.282,65.756 147.817 C 65.851 147.570,65.760 147.563,65.194 147.772 C 64.688 147.958,64.498 147.961,64.436 147.782 C 64.378 147.611,64.173 147.633,63.722 147.858 C 62.297 148.569,62.533 147.791,64.291 145.987 C 66.723 143.491,66.808 143.321,65.174 144.229 C 63.632 145.086,63.443 145.141,63.617 144.688 C 63.683 144.516,63.635 144.375,63.510 144.375 C 63.360 144.375,63.371 144.269,63.542 144.063 C 63.758 143.801,63.728 143.750,63.359 143.750 C 62.636 143.750,62.849 143.206,63.938 142.268 C 64.500 141.784,64.918 141.278,64.866 141.143 C 64.814 141.008,65.128 140.629,65.563 140.300 C 66.815 139.354,70.595 135.617,71.375 134.555 C 72.195 133.438,72.383 132.581,71.665 133.230 C 70.967 133.862,70.956 133.415,71.642 132.299 C 71.999 131.719,72.292 131.113,72.292 130.954 C 72.292 130.499,76.135 126.708,78.438 124.893 C 79.583 123.990,81.083 122.715,81.771 122.061 C 84.757 119.220,86.104 118.139,87.684 117.317 C 89.635 116.302,89.996 115.881,91.365 113.021 C 92.380 110.902,92.568 110.656,93.610 110.086 C 94.937 109.361,97.349 109.283,98.955 109.913 M85.463 139.908 C 84.437 140.626,86.064 143.197,87.407 142.979 C 87.892 142.900,88.331 143.020,89.004 143.414 C 91.284 144.751,91.108 143.942,88.594 141.534 C 86.475 139.504,86.224 139.374,85.463 139.908 M85.467 145.469 C 85.568 145.775,86.667 145.953,86.667 145.663 C 86.667 145.554,86.456 145.409,86.198 145.340 C 85.509 145.155,85.372 145.179,85.467 145.469 M76.042 180.417 L 76.042 212.917 199.792 212.917 L 323.542 212.917 323.542 180.417 L 323.542 147.917 206.492 147.917 L 89.442 147.917 89.157 148.490 L 88.872 149.063 88.797 148.490 L 88.722 147.917 82.382 147.917 L 76.042 147.917 76.042 180.417 M199.792 180.417 L 199.792 208.542 140.313 208.542 L 80.833 208.542 80.833 180.417 L 80.833 152.292 140.313 152.292 L 199.792 152.292 199.792 180.417 M261.779 170.319 C 265.273 171.217,268.030 173.849,268.921 177.135 L 269.133 177.917 266.272 177.917 L 263.411 177.917 263.070 177.202 C 261.729 174.392,256.842 174.661,255.407 177.624 C 252.846 182.914,260.271 187.580,263.170 182.503 L 263.646 181.670 266.429 181.668 L 269.213 181.667 269.069 182.448 C 267.483 191.034,253.941 192.525,250.200 184.526 C 246.443 176.493,253.260 168.130,261.779 170.319 M283.910 170.314 C 293.861 172.660,294.225 186.687,284.405 189.410 C 277.734 191.260,271.444 187.229,270.910 180.762 C 270.326 173.693,276.658 168.604,283.910 170.314 M92.917 179.778 L 92.917 189.167 94.063 189.167 L 95.208 189.167 95.208 185.729 L 95.208 182.292 97.344 182.300 L 99.479 182.308 101.771 185.730 L 104.063 189.153 105.365 189.160 C 106.975 189.168,107.062 189.507,104.492 185.752 C 101.929 182.008,101.977 182.133,102.953 181.789 C 107.386 180.223,107.739 173.480,103.512 171.139 L 102.396 170.521 97.656 170.455 L 92.917 170.389 92.917 179.778 M115.037 179.626 C 110.643 190.323,110.966 189.167,112.373 189.167 L 113.496 189.167 114.377 186.975 L 115.257 184.784 119.940 184.840 L 124.624 184.896 125.489 187.029 L 126.354 189.162 127.547 189.164 C 128.700 189.167,128.734 189.151,128.554 188.698 C 128.453 188.440,126.727 184.245,124.720 179.375 L 121.071 170.521 119.949 170.460 L 118.827 170.398 115.037 179.626 M134.375 176.615 C 135.725 180.023,137.392 184.219,138.080 185.938 L 139.331 189.063 140.402 189.063 L 141.473 189.063 145.112 179.922 C 149.326 169.335,149.038 170.417,147.637 170.417 L 146.525 170.417 143.788 177.344 C 142.283 181.154,140.947 184.576,140.818 184.948 C 140.442 186.037,140.411 185.975,137.286 178.021 L 134.299 170.417 133.110 170.417 L 131.921 170.417 134.375 176.615 M154.375 179.792 L 154.375 189.167 160.208 189.167 L 166.042 189.167 166.042 188.125 L 166.042 187.083 161.354 187.083 L 156.667 187.083 156.667 183.854 L 156.667 180.625 160.833 180.625 L 165.000 180.625 165.000 179.583 L 165.000 178.542 160.833 178.542 L 156.667 178.542 156.667 175.417 L 156.667 172.292 161.146 172.292 L 165.625 172.292 165.625 171.354 L 165.625 170.417 160.000 170.417 L 154.375 170.417 154.375 179.792 M172.708 179.792 L 172.708 189.167 173.852 189.167 L 174.995 189.167 175.049 181.773 L 175.104 174.379 180.313 181.769 L 185.521 189.158 186.510 189.162 L 187.500 189.167 187.500 179.792 L 187.500 170.417 186.458 170.417 L 185.417 170.417 185.410 177.760 C 185.403 184.729,185.385 185.082,185.045 184.674 C 184.848 184.437,182.491 181.132,179.807 177.330 L 174.926 170.417 173.817 170.417 L 172.708 170.417 172.708 179.792 M225.639 170.748 C 230.694 172.226,232.266 178.981,228.337 182.345 L 227.451 183.102 229.068 186.082 C 229.957 187.721,230.724 189.133,230.771 189.219 C 230.819 189.305,229.421 189.375,227.665 189.375 L 224.471 189.375 223.174 186.771 L 221.877 184.167 220.939 184.167 L 220.000 184.167 220.000 186.771 L 220.000 189.375 217.188 189.375 L 214.375 189.375 214.375 179.896 L 214.375 170.417 219.441 170.417 C 223.456 170.417,224.743 170.485,225.639 170.748 M246.875 172.708 L 246.875 175.000 243.125 175.000 L 239.375 175.000 239.375 176.250 L 239.375 177.500 242.708 177.500 L 246.042 177.500 246.042 179.792 L 246.042 182.083 242.708 182.083 L 239.375 182.083 239.375 183.438 L 239.375 184.792 243.229 184.792 L 247.083 184.792 247.083 187.083 L 247.083 189.375 240.417 189.375 L 233.750 189.375 233.750 179.896 L 233.750 170.417 240.313 170.417 L 246.875 170.417 246.875 172.708 M302.498 175.138 L 306.042 179.859 306.042 175.138 L 306.042 170.417 308.750 170.417 L 311.458 170.417 311.458 179.896 L 311.458 189.375 309.214 189.375 L 306.970 189.375 303.537 184.785 L 300.104 180.196 300.048 184.785 L 299.992 189.375 297.184 189.375 L 294.375 189.375 294.375 179.896 L 294.375 170.417 296.664 170.417 L 298.954 170.417 302.498 175.138 M101.688 172.737 C 104.224 173.584,105.044 177.053,103.172 179.015 C 102.333 179.895,100.942 180.208,97.879 180.208 L 95.208 180.208 95.208 176.354 L 95.208 172.500 98.094 172.500 C 99.694 172.500,101.295 172.605,101.688 172.737 M121.900 178.233 L 123.723 182.708 119.987 182.708 C 117.931 182.708,116.250 182.638,116.250 182.552 C 116.249 182.201,119.861 173.542,119.965 173.646 C 120.027 173.707,120.898 175.772,121.900 178.233 M219.792 177.292 L 219.792 179.583 221.361 179.583 C 223.930 179.583,224.792 179.008,224.792 177.292 C 224.792 175.575,223.930 175.000,221.361 175.000 L 219.792 175.000 219.792 177.292 M279.023 175.736 C 277.171 176.659,276.262 178.678,276.685 180.930 C 277.721 186.449,285.824 185.531,285.824 179.896 C 285.824 176.251,282.307 174.100,279.023 175.736 " stroke="none" fill="#fbfbfb" fill-rule="evenodd"></path><path id="path2" d="M91.933 111.927 C 91.697 112.232,91.434 112.917,91.554 112.917 C 91.599 112.917,91.776 112.635,91.948 112.292 C 92.276 111.634,92.270 111.491,91.933 111.927 M92.383 135.260 L 91.771 135.938 92.448 135.326 C 93.079 134.755,93.221 134.583,93.060 134.583 C 93.024 134.583,92.719 134.888,92.383 135.260 M89.688 141.042 C 90.135 141.500,90.548 141.875,90.605 141.875 C 90.663 141.875,90.343 141.500,89.896 141.042 C 89.448 140.583,89.035 140.208,88.978 140.208 C 88.921 140.208,89.240 140.583,89.688 141.042 M325.727 180.417 C 325.727 199.495,325.751 207.299,325.781 197.760 C 325.811 188.221,325.811 172.612,325.781 163.073 C 325.751 153.534,325.727 161.339,325.727 180.417 M63.424 146.927 L 62.813 147.604 63.490 146.992 C 64.121 146.422,64.262 146.250,64.101 146.250 C 64.066 146.250,63.761 146.555,63.424 146.927 M79.232 147.864 C 81.044 147.899,83.950 147.899,85.690 147.864 C 87.430 147.829,85.948 147.801,82.396 147.801 C 78.844 147.801,77.420 147.830,79.232 147.864 M89.303 147.865 C 89.250 147.951,141.932 147.997,206.374 147.968 L 323.542 147.916 323.542 180.416 L 323.542 212.916 199.740 212.969 L 75.938 213.021 199.844 213.073 L 323.750 213.125 323.750 180.417 L 323.750 147.708 206.575 147.708 C 142.128 147.708,89.356 147.779,89.303 147.865 M258.493 170.151 C 258.868 170.197,259.430 170.196,259.743 170.149 C 260.056 170.101,259.750 170.063,259.063 170.065 C 258.375 170.066,258.119 170.105,258.493 170.151 M280.573 170.151 C 280.945 170.197,281.555 170.197,281.927 170.151 C 282.299 170.104,281.995 170.067,281.250 170.067 C 280.505 170.067,280.201 170.104,280.573 170.151 M92.804 179.792 C 92.804 185.005,92.831 187.138,92.864 184.531 C 92.897 181.924,92.897 177.659,92.864 175.052 C 92.831 172.445,92.804 174.578,92.804 179.792 M154.263 179.792 C 154.263 185.005,154.290 187.138,154.323 184.531 C 154.356 181.924,154.356 177.659,154.323 175.052 C 154.290 172.445,154.263 174.578,154.263 179.792 M172.596 179.792 C 172.596 185.005,172.623 187.138,172.656 184.531 C 172.689 181.924,172.689 177.659,172.656 175.052 C 172.623 172.445,172.596 174.578,172.596 179.792 M185.162 177.624 C 185.130 181.588,185.174 184.875,185.260 184.928 C 185.346 184.981,185.417 181.738,185.417 177.721 C 185.417 173.703,185.372 170.417,185.318 170.417 C 185.263 170.417,185.193 173.660,185.162 177.624 M233.846 179.896 C 233.846 185.167,233.873 187.293,233.906 184.621 C 233.939 181.949,233.939 177.637,233.906 175.038 C 233.873 172.439,233.846 174.625,233.846 179.896 M246.745 172.604 C 246.745 173.865,246.779 174.353,246.821 173.690 C 246.862 173.027,246.862 171.996,246.820 171.399 C 246.778 170.801,246.744 171.344,246.745 172.604 M294.471 179.896 C 294.471 185.167,294.498 187.293,294.531 184.621 C 294.564 181.949,294.564 177.637,294.531 175.038 C 294.498 172.439,294.471 174.625,294.471 179.896 M220.469 174.943 C 220.898 174.988,221.602 174.988,222.031 174.943 C 222.461 174.898,222.109 174.862,221.250 174.862 C 220.391 174.862,220.039 174.898,220.469 174.943 M259.010 175.144 C 259.211 175.196,259.539 175.196,259.740 175.144 C 259.940 175.091,259.776 175.048,259.375 175.048 C 258.974 175.048,258.810 175.091,259.010 175.144 M158.906 178.489 C 160.081 178.526,162.003 178.526,163.177 178.489 C 164.352 178.452,163.391 178.421,161.042 178.421 C 158.693 178.421,157.732 178.452,158.906 178.489 M249.219 179.896 C 249.222 180.354,249.264 180.517,249.314 180.258 C 249.364 179.999,249.362 179.624,249.310 179.425 C 249.258 179.225,249.217 179.438,249.219 179.896 M270.886 179.896 C 270.888 180.354,270.931 180.517,270.981 180.258 C 271.031 179.999,271.029 179.624,270.976 179.425 C 270.924 179.225,270.884 179.438,270.886 179.896 M220.360 179.734 C 220.730 179.780,221.386 179.780,221.818 179.735 C 222.251 179.690,221.948 179.653,221.146 179.652 C 220.344 179.651,219.990 179.688,220.360 179.734 M96.406 180.154 C 97.122 180.195,98.294 180.195,99.010 180.154 C 99.727 180.114,99.141 180.080,97.708 180.080 C 96.276 180.080,95.690 180.114,96.406 180.154 M240.896 182.030 C 241.904 182.069,243.498 182.068,244.437 182.030 C 245.377 181.991,244.552 181.960,242.604 181.960 C 240.656 181.960,239.887 181.992,240.896 182.030 M96.198 182.445 C 96.799 182.487,97.784 182.487,98.385 182.445 C 98.987 182.403,98.495 182.369,97.292 182.369 C 96.089 182.369,95.596 182.403,96.198 182.445 M116.250 182.552 C 116.250 182.638,117.914 182.690,119.948 182.668 C 123.669 182.628,123.230 182.551,118.698 182.450 C 117.351 182.420,116.249 182.466,116.250 182.552 M117.656 184.947 C 118.945 184.984,121.055 184.984,122.344 184.947 C 123.633 184.911,122.578 184.881,120.000 184.881 C 117.422 184.881,116.367 184.911,117.656 184.947 M166.104 188.125 C 166.104 188.755,166.143 189.013,166.191 188.698 C 166.239 188.383,166.239 187.867,166.191 187.552 C 166.143 187.237,166.104 187.495,166.104 188.125 " stroke="none" fill="#7c7c7c" fill-rule="evenodd"></path><path id="path3" d="M241.083 174.947 C 242.080 174.985,243.768 174.985,244.833 174.947 C 245.899 174.909,245.083 174.878,243.021 174.878 C 240.958 174.878,240.086 174.909,241.083 174.947 M240.990 177.655 C 241.935 177.694,243.482 177.694,244.427 177.655 C 245.372 177.616,244.599 177.585,242.708 177.585 C 240.818 177.585,240.044 177.616,240.990 177.655 M165.062 179.583 C 165.062 180.214,165.101 180.471,165.149 180.156 C 165.197 179.841,165.197 179.326,165.149 179.010 C 165.101 178.695,165.062 178.953,165.062 179.583 M241.313 184.947 C 242.436 184.985,244.217 184.984,245.271 184.947 C 246.325 184.909,245.406 184.878,243.229 184.879 C 241.052 184.879,240.190 184.910,241.313 184.947 M159.115 187.031 C 160.404 187.067,162.513 187.067,163.802 187.031 C 165.091 186.994,164.036 186.964,161.458 186.964 C 158.880 186.964,157.826 186.994,159.115 187.031 " stroke="none" fill="#9f9f9f" fill-rule="evenodd"></path><path id="path4" d="M96.094 109.519 C 96.294 109.571,96.622 109.571,96.823 109.519 C 97.023 109.466,96.859 109.423,96.458 109.423 C 96.057 109.423,95.893 109.466,96.094 109.519 M71.603 133.027 C 71.281 133.310,71.106 133.542,71.213 133.542 C 71.320 133.542,71.528 133.397,71.675 133.219 C 71.889 132.962,71.977 132.951,72.114 133.167 C 72.233 133.355,72.286 133.295,72.288 132.969 C 72.292 132.399,72.320 132.397,71.603 133.027 M69.680 136.510 L 68.646 137.604 69.740 136.570 C 70.341 136.002,70.833 135.510,70.833 135.477 C 70.833 135.321,70.640 135.494,69.680 136.510 M70.924 144.427 L 70.313 145.104 70.990 144.492 C 71.621 143.922,71.762 143.750,71.601 143.750 C 71.566 143.750,71.261 144.055,70.924 144.427 M94.855 170.364 C 95.978 170.401,97.759 170.401,98.813 170.363 C 99.867 170.326,98.948 170.295,96.771 170.295 C 94.594 170.295,93.731 170.326,94.855 170.364 M119.427 170.358 C 119.742 170.405,120.258 170.405,120.573 170.358 C 120.888 170.310,120.630 170.271,120.000 170.271 C 119.370 170.271,119.112 170.310,119.427 170.358 M132.452 170.359 C 132.826 170.406,133.389 170.405,133.702 170.357 C 134.015 170.310,133.708 170.272,133.021 170.273 C 132.333 170.274,132.077 170.313,132.452 170.359 M146.667 170.327 C 147.377 170.485,148.958 170.512,148.958 170.366 C 148.958 170.279,148.372 170.219,147.656 170.233 C 146.940 170.246,146.495 170.288,146.667 170.327 M159.948 170.364 L 165.625 170.423 165.625 171.353 L 165.625 172.284 161.094 172.344 L 156.563 172.404 161.198 172.452 L 165.833 172.500 165.833 171.354 L 165.833 170.208 160.052 170.257 L 154.271 170.306 159.948 170.364 M173.177 170.358 C 173.492 170.405,174.008 170.405,174.323 170.358 C 174.638 170.310,174.380 170.271,173.750 170.271 C 173.120 170.271,172.862 170.310,173.177 170.358 M186.404 170.362 L 187.496 170.438 187.552 179.855 L 187.609 189.271 187.658 179.740 L 187.708 170.208 186.510 170.247 L 185.313 170.285 186.404 170.362 M239.233 176.250 C 239.233 176.995,239.271 177.299,239.317 176.927 C 239.364 176.555,239.364 175.945,239.317 175.573 C 239.271 175.201,239.233 175.505,239.233 176.250 M299.881 184.688 C 299.881 187.323,299.911 188.372,299.947 187.019 C 299.984 185.667,299.984 183.510,299.947 182.228 C 299.911 180.945,299.881 182.052,299.881 184.688 M264.835 181.821 C 265.603 181.861,266.916 181.861,267.751 181.822 C 268.587 181.782,267.958 181.749,266.354 181.749 C 264.750 181.749,264.066 181.781,264.835 181.821 M239.235 183.438 C 239.236 184.240,239.274 184.542,239.319 184.110 C 239.364 183.678,239.363 183.021,239.317 182.652 C 239.271 182.282,239.234 182.635,239.235 183.438 M219.882 184.231 C 219.825 184.381,219.808 185.623,219.844 186.991 L 219.910 189.479 219.955 186.803 L 220.000 184.126 221.022 184.199 C 221.584 184.238,222.001 184.201,221.947 184.115 C 221.776 183.838,219.994 183.939,219.882 184.231 M136.823 215.156 C 171.456 215.185,228.128 215.185,262.760 215.156 C 297.393 215.127,269.057 215.103,199.792 215.103 C 130.526 215.103,102.190 215.127,136.823 215.156 " stroke="none" fill="#bcbcbc" fill-rule="evenodd"></path></g></svg>